<svg id="圖層_1" data-name="圖層 1" xmlns="http://www.w3.org/2000/svg" viewBox="0 0 1366 400"><defs><style>.cls-1{fill:#0a34a2;}</style></defs><path class="cls-1" d="M280.14,153.43a5.87,5.87,0,0,0,1.29.39,5.13,5.13,0,0,0,1.38.06l.57,0q21.64.3,43.75-1.06l3.79-.29A264.62,264.62,0,0,0,389.76,141a110.41,110.41,0,0,0,31.91-15.59,52.6,52.6,0,0,0,10.4-9.57,22.5,22.5,0,0,0,4.44-8.14,14.61,14.61,0,0,0-.91-10.33,21.66,21.66,0,0,0-7.11-8.72,73.24,73.24,0,0,0-28.57-13.1,186,186,0,0,0-39.2-5.47,257.5,257.5,0,0,0-29,.58q-3.6.27-7.25.71a262.2,262.2,0,0,0-51.77,11.42,275.51,275.51,0,0,0-78.68,40.76A86.41,86.41,0,0,0,172,145.42l-.09.33a23.74,23.74,0,0,0-2.86,5.09l-.18.67a3.22,3.22,0,0,0,.9,3.5c.7.6,1,1.17.83,1.73a3.63,3.63,0,0,1-1.63,1.91,7.08,7.08,0,0,1-3.5,1.24,4.45,4.45,0,0,1-3.43-1,5,5,0,0,1-1.69-5.4,23.07,23.07,0,0,1,3.45-7.25,108.18,108.18,0,0,1,18.83-20.77,226.55,226.55,0,0,1,41.84-28.21,293.77,293.77,0,0,1,89-30.82Q327.26,64,341.1,63q12.7-1,25.48-.8a180.12,180.12,0,0,1,55,8.33,72,72,0,0,1,20,9.85,32.5,32.5,0,0,1,8,7.69,23,23,0,0,1,3.43,20.21,40.36,40.36,0,0,1-4,9.41,56.83,56.83,0,0,1-14.34,15.88A116.72,116.72,0,0,1,407,150a227.92,227.92,0,0,1-47.75,13.71,302.34,302.34,0,0,1-33.73,4.52l-1.33.1a7.61,7.61,0,0,0-2.17.49,2.85,2.85,0,0,0,.93.66,7.47,7.47,0,0,1,1,.49,1.73,1.73,0,0,1,.72.11,71.45,71.45,0,0,1,14.15,6.73,27.13,27.13,0,0,1,13.6,21.06c.07,1.08.22,1.69.43,1.84a1.35,1.35,0,0,0,.88.17,10.28,10.28,0,0,0,2.17-.49q5.54-1.23,11.22-2.31,12.83-2.76,25.69-5.7,15.53-3.12,31.22-4.81a38.73,38.73,0,0,1,5-.06,4.54,4.54,0,0,1,2.23.32,1.38,1.38,0,0,1,.79,1.57,2.66,2.66,0,0,1-1.33,1.8,9.47,9.47,0,0,1-2.34.75q-10.74,1.95-21.48,4.56-6.58,1.64-13.3,3.13-7.86,1.56-15.95,3.32-11.49,2.67-23.09,5a4.44,4.44,0,0,0-2.1.89,3.24,3.24,0,0,0-1,1.62l-.76,2.82a84.72,84.72,0,0,1-14.53,28.9,165.37,165.37,0,0,1-25.85,27.48,384.71,384.71,0,0,1-88.52,56.46,318.64,318.64,0,0,1-79.19,25.53,183.35,183.35,0,0,1-19.85,2.65,160.44,160.44,0,0,1-33.38-.88,56.37,56.37,0,0,1-17.31-5.34,25.14,25.14,0,0,1-8.31-6.36,17.12,17.12,0,0,1-3.41-16.15,29.42,29.42,0,0,1,3-7.06,54.73,54.73,0,0,1,9.84-11.63,167.15,167.15,0,0,1,28.37-21,401.84,401.84,0,0,1,70.28-33.79q40.62-14.79,81.75-26.05,38.39-10.73,77-19.67c2.49-.52,3.88-1,4.16-1.3a2.54,2.54,0,0,0,.51-.85,6.5,6.5,0,0,0-.38-3.38,17.33,17.33,0,0,0-4.11-8.14,39,39,0,0,0-10.85-8.6,135.63,135.63,0,0,0-27.51-10.9,3.47,3.47,0,0,0-1.95-.34,66,66,0,0,1-10.5-1q-3.06-.42-5.95-.69a36,36,0,0,0-4.65,0l-1.71.13c-1.39.11-2.7.15-3.93.14a4,4,0,0,0-1.94.63,6.3,6.3,0,0,0-1.36,1.25l-.47.36q-2.34,2.44-4.86,4.92-7,6.71-14,13.9-14.87,15.1-28.21,31.4a77,77,0,0,0-8.54,13,3.77,3.77,0,0,1-3.06,2.34,4.42,4.42,0,0,1-1.61-.2,4.59,4.59,0,0,1-3.38-4,18.48,18.48,0,0,1,.51-7.35,23.19,23.19,0,0,1,1.41-3.84,57,57,0,0,1,6.62-11.4A344.87,344.87,0,0,1,244.5,167q11.28-10.77,22.61-21.71c1.53-1.53,3.05-3,4.54-4.41A400.66,400.66,0,0,1,305,111.08a124.66,124.66,0,0,1,13.4-9,37.93,37.93,0,0,1,8.1-3.87,14.59,14.59,0,0,1,4.17-1,9.44,9.44,0,0,1,1.66,0q5.5.23,6.62,3a7.75,7.75,0,0,1,.52,4.91,12.71,12.71,0,0,1-2.5,4.42,17.21,17.21,0,0,1-3.46,3.19A96.14,96.14,0,0,1,321,120.75q-.86.39-1.47.6a4.32,4.32,0,0,1-1,.24,2.75,2.75,0,0,1-.9-.1,1.86,1.86,0,0,0-1.2-.39,1.11,1.11,0,0,0-.61.21,5.18,5.18,0,0,0-1.74.94,384.7,384.7,0,0,0-33.27,30.16,1,1,0,0,0-.32.51A1.7,1.7,0,0,1,280.14,153.43ZM106.46,339.56q4.13-.15,8.3-.47a281.69,281.69,0,0,0,61.78-12A370.26,370.26,0,0,0,272.36,280a296.61,296.61,0,0,0,30.22-23.75,126.74,126.74,0,0,0,24.09-27.84,66.22,66.22,0,0,0,7-14.83l.13-.5c.24-.88,0-1.3-.78-1.24l-.8.23q-4.92,1-9.7,2.2a30.62,30.62,0,0,0-3.36.74,1210.68,1210.68,0,0,0-127,36.16Q172.87,257.8,154,265.91a357.14,357.14,0,0,0-50.5,26.59A156.94,156.94,0,0,0,80.87,310a40.26,40.26,0,0,0-7.33,8.52,18.17,18.17,0,0,0-2.25,4.89q-1.62,6,3.8,9.94a29.77,29.77,0,0,0,9.27,4.17A76.31,76.31,0,0,0,106.46,339.56Z"/><path class="cls-1" d="M391.3,273a83.39,83.39,0,0,1,9-17.26q17.52-26.19,36.55-51.86a4.66,4.66,0,0,0,.74-1.35l.09-.34c.12-.44-.19-.9-.92-1.39q-7.8-4.77-5.53-14.53l.27-1a33,33,0,0,1,3.86-8.75,112,112,0,0,1,19.45-23.74A54.26,54.26,0,0,1,468.39,143a32.18,32.18,0,0,1,7.56-2.53l.57,0q4-.3,5.86,1.66,1.59,1.68.78,4.66a9.44,9.44,0,0,1-.59,1.51,36.67,36.67,0,0,1-6.24,8.6,220.85,220.85,0,0,1-24.67,23.81c-1.85,1.34-2.93,2.61-3.26,3.82a3.09,3.09,0,0,0,1,3c.35.52.66,1,.92,1.4a16.77,16.77,0,0,0,3.76,3.93,4.87,4.87,0,0,1,1.74,5.23,25.47,25.47,0,0,1-2.94,6.73q-4.87,7.68-10.23,15.08-2.32,3.1-4.46,6.19-3,4.29-6.09,8.75-8.94,12.38-17.35,24.88-2.09,3.57-4,7.13c-.59,1.24-1.23,2.48-1.94,3.72a3.61,3.61,0,0,0-.46,1,3.4,3.4,0,0,0,0,1.95c.15,1.29.67,1.9,1.55,1.83a5,5,0,0,0,2.12-1,63.76,63.76,0,0,0,8.93-6.21,342,342,0,0,0,25.66-24.05q29-30.15,55.5-61.43l.24-.18a12.19,12.19,0,0,1,3.7-3.37,5.23,5.23,0,0,1,2-.64,2.34,2.34,0,0,1,1.57.37,1.91,1.91,0,0,1,.74,2.06,4.44,4.44,0,0,1-.5,1.17,6.84,6.84,0,0,1-.84,1,.71.71,0,0,0-.28.35q-9.3,10.29-19.24,21.61-16.81,19.49-34.82,39t-36,35.65a36.57,36.57,0,0,1-10.06,6.94,18.24,18.24,0,0,1-5.82,1.58,11.45,11.45,0,0,1-6.19-1.16Q388.46,283.49,391.3,273Zm68.34-105.31-.09.34a58.21,58.21,0,0,0,5.27-4.71q2.93-2.91,5.26-5.68a17.71,17.71,0,0,0,3-4.46,163.26,163.26,0,0,0-12,12.62,3.16,3.16,0,0,0-.51.52c-.19.24-.38.46-.56.7A1.8,1.8,0,0,0,459.64,167.72Z"/><path class="cls-1" d="M559.15,174.17a9.13,9.13,0,0,1,2.88-1,1.33,1.33,0,0,1,1.48.7,1.42,1.42,0,0,1,.36,1.44l-.33.51a5.74,5.74,0,0,1-1.44,1.9q-6,5.82-19.72,18.24T514.7,220.21q-14,11.86-20.91,16.13a34.33,34.33,0,0,1-10.43,4.21l-1.52.11q-9.85.75-10.7-7.79a16.1,16.1,0,0,1,.56-4.11,21.13,21.13,0,0,1,2.44-5.55,122.19,122.19,0,0,1,9.33-14.52q9-11.9,17.74-23.61c.77-1,1.54-2,2.28-2.94a113.57,113.57,0,0,1,9.39-10.63,21.85,21.85,0,0,1,3.65-3.2,13.19,13.19,0,0,1,5.57-2.05,6.81,6.81,0,0,1,3.72.69q3.58,1.85,2.5,5.82a5.9,5.9,0,0,1-.55,1.35,24.39,24.39,0,0,1-3.58,5q-14,16.67-26.18,34.17l-4.1,5.51a19.54,19.54,0,0,0-2.82,4.93c-.24.89,0,1.3.59,1.26a2.38,2.38,0,0,0,.8-.23q3.64-1.08,12.64-7.54t19.67-15q10.68-8.52,19.75-16t12.92-10.66ZM533,144.8q1.84-6.81,8.46-12a18,18,0,0,1,9.63-4,13,13,0,0,1,2.94.11q3.9.67,3.14,3.49a8.73,8.73,0,0,1-1.25,2.54,50,50,0,0,1-6.21,7.13q-3.27,3.18-6.22,6.49c-.74.92-1.55,1.85-2.42,2.78a2.91,2.91,0,0,1-.52.53,3.29,3.29,0,0,1-.79.87c-1.38,1.41-2.44,2.14-3.2,2.2s-1.71-.52-2.49-1.76A9.75,9.75,0,0,1,533,144.8Z"/><path class="cls-1" d="M576.88,197.64a10.51,10.51,0,0,0-3.15,2l-.56.69q-4.84,4.11-9.71,8.38Q557,214.28,550.38,220a134.38,134.38,0,0,1-12.63,9.58,32.52,32.52,0,0,1-6.59,3.75,16.29,16.29,0,0,1-4.78,1.18,8.21,8.21,0,0,1-4.09-.67q-3.48-1.51-3.45-5.75a16,16,0,0,1,.55-4.1,19.19,19.19,0,0,1,1.66-4q14.36-27.57,41.86-48.85a63.24,63.24,0,0,1,11.3-6.71,6.52,6.52,0,0,1,1.7-.78,26.41,26.41,0,0,1,7-1.66q5.5-.42,8.49,2.92c1.26,1.75,1.72,3.34,1.4,4.77s-.52,2.26-.58,2.49a19.57,19.57,0,0,1-3.79,7.11.23.23,0,0,0-.23.18,3.28,3.28,0,0,1-.52.53c-.5.47-1,.85-1.33,1.15a2.25,2.25,0,0,1-1.16.5,1.52,1.52,0,0,1-.71-.11c-.61-.06-.95-.28-1-.65a5.21,5.21,0,0,1-.1-1.38,1.2,1.2,0,0,0,0-.65,23.3,23.3,0,0,0,.28-3.11c0-1.08-.05-1.64-.28-1.68a2.4,2.4,0,0,0-.55,0,6.37,6.37,0,0,0-2.12,1A83,83,0,0,0,568,183.86a148,148,0,0,0-28.2,32.7l-.09.33a1.91,1.91,0,0,0-.37.68l-.09.33a1.2,1.2,0,0,0,0,.65,18.42,18.42,0,0,0,4.34-2.28,4.78,4.78,0,0,1,.89-.56,306.13,306.13,0,0,0,36.77-27.34,64.93,64.93,0,0,0,10.1-10.51A62.92,62.92,0,0,1,596,172.3l1.12-1.39a23,23,0,0,1,4.21-3.89,10.64,10.64,0,0,1,5.66-2.38,6.92,6.92,0,0,1,2.19.16q4,1.15,3.44,5.1l-.21,1.48a14.54,14.54,0,0,1-2.12,4.38q-2.74,3.94-5.63,7.74-3.4,4.32-5.41,6.92-2.47,2.94-4.54,5.78a83.88,83.88,0,0,0-4.94,7.94,73.81,73.81,0,0,0-4.62,8.8l-1.1,2.68L584,216c-.33,1.22-.18,1.81.45,1.76a5.1,5.1,0,0,0,2.13-1q4.7-3,9.16-6.38c2.22-1.8,4.42-3.53,6.62-5.22q23.43-17.22,39.06-33a22.52,22.52,0,0,1,4.37-3.1,2.49,2.49,0,0,1,1.27-.58,1.41,1.41,0,0,1,1.19.39,1.08,1.08,0,0,1,.4,1.27,3.53,3.53,0,0,1-.41.85,25.45,25.45,0,0,1-3.46,3.84q-3.75,3.53-8.29,7.94-12.4,12.15-26.66,25.35A239,239,0,0,1,585,228.55a19.43,19.43,0,0,1-8.69,3.26l-1.33.1a8.53,8.53,0,0,1-7.31-3.83,13.37,13.37,0,0,1-.92-10.33l.14-.5a56.45,56.45,0,0,1,7.28-15.18c.46-.79.91-1.53,1.34-2.21A2.21,2.21,0,0,0,576,199C576.16,198.67,576.47,198.22,576.88,197.64Z"/><path class="cls-1" d="M638.62,201.84a7.15,7.15,0,0,0,2.87-1.68,2,2,0,0,0,.71-.54q15.67-11.93,30.11-24.72l.47-.36a.77.77,0,0,0,.28-.35q7.59-6.75,15.76-12.9c2-1.34,3.94-2.63,5.88-3.86a31.42,31.42,0,0,1,6.83-3.28,23,23,0,0,1,4.5-.83,9.62,9.62,0,0,1,7,1.74q3.12,2.85,1.64,8.33l-.36,1.33a43.08,43.08,0,0,1-5.47,9.19q-3.49,4.65-5.81,8.08c-1.55,2.28-3,4.51-4.32,6.66q-2.65,4.28-7.2,10.79a3.66,3.66,0,0,1-.65,1c-.78,1-1.59,2.17-2.42,3.43a8.43,8.43,0,0,0-1.41,2.79c-.1.6,0,.89.42.86a4.41,4.41,0,0,0,1.42-.43q7.77-3.36,18.37-12.61t20.47-18.95q9.83-9.52,15.74-14.2l.47-.36a8.46,8.46,0,0,1,1.58-1,2.82,2.82,0,0,1,1-.32,1.6,1.6,0,0,1,1.33.54,1.11,1.11,0,0,1,.26,1.12l-.09.33a5.37,5.37,0,0,1-1.17,1.55.82.82,0,0,0-.28.35q-5.46,6.44-20.74,21.65A351.75,351.75,0,0,1,696,211.94q-14.55,11.51-21.57,12a7.52,7.52,0,0,1-2.37-.15q-6.31-2.76-4.94-9.86l.59-2.16A35.47,35.47,0,0,1,672.83,201q3.54-5.46,5.85-9.22c1.54-2.5,3.12-5,4.71-7.43s3.68-5.45,6.25-9l.56-.7a12.1,12.1,0,0,0,1.44-2.54l-.53-.13-1.27.59-.47.36A102.33,102.33,0,0,0,678,180.81q-15.48,12.56-29.62,26.3a34.54,34.54,0,0,1-2.76,2.65q-4.77,4.59-9.5,9c-1.82,1.66-3.67,3.26-5.58,4.81a22.2,22.2,0,0,1-6.64,3.92,14.91,14.91,0,0,1-5.43,1.55,9.25,9.25,0,0,1-5.91-1.5,6.36,6.36,0,0,1-2.19-7,12.85,12.85,0,0,1,.73-2,127,127,0,0,1,13.3-22.3q12-16.66,24.77-33.08a25.9,25.9,0,0,1,4.82-4.76,13.48,13.48,0,0,1,6.23-2.42,8.08,8.08,0,0,1,4.57.95,5,5,0,0,1,2,5.7,10.47,10.47,0,0,1-1.33,2.86c-1.62,2.29-3.26,4.48-4.94,6.55q-1.22,1.73-2.37,3.27-9,11.89-17.79,23.78a.71.71,0,0,0-.28.35A9.42,9.42,0,0,0,638.62,201.84Z"/><path class="cls-1" d="M741.92,193.58l1.5-1.41,3.55-3.52c.69-.7,1.31-1.4,1.87-2.09q9.63-10.16,20-19.56a164.65,164.65,0,0,1,28.42-20.53,12.67,12.67,0,0,1,4.91-1.67,5.25,5.25,0,0,1,4.92,2.39,8.07,8.07,0,0,1,.67,6.45l-.6,1.5a47.07,47.07,0,0,1-4.25,8.13q-3.9,6.15-8,12.31-4.51,7-8.34,14.28l0,.17a12.75,12.75,0,0,0-.73,2l-.27,1a6.37,6.37,0,0,0,1.77-.71,16.67,16.67,0,0,0,1.48-1,2,2,0,0,0,.7-.54q15.71-10.62,30.24-22.46,9.25-7.37,19-14a.85.85,0,0,0,.42-.19,14.9,14.9,0,0,1,3.3-1.88,2.29,2.29,0,0,1,.8-.22,1.17,1.17,0,0,1,1.15.56.79.79,0,0,1,.15.8,2.31,2.31,0,0,1-.6.86,21.54,21.54,0,0,1-2,1.78q-27.4,22.23-53.6,45.51a47.79,47.79,0,0,1-6.61,5.22,19.7,19.7,0,0,1-8.27,3.07,11.06,11.06,0,0,1-3.27-.24c-3.12-.85-4.7-3.22-4.76-7.11a25.21,25.21,0,0,1,.79-4.29,35.13,35.13,0,0,1,3.26-7.89,188.78,188.78,0,0,1,16.31-27.24c.86-1.36,1.72-2.67,2.55-3.93.44-.68.85-1.31,1.26-1.88a1.58,1.58,0,0,0-.72-.11l-.38,0a4.69,4.69,0,0,1-.89.55.77.77,0,0,1-.28.35,97.82,97.82,0,0,0-12.3,9.71,446.5,446.5,0,0,0-48.19,51,42.81,42.81,0,0,0-4.74,7.18q-.74,1.36-1.44,2.55a30.46,30.46,0,0,1-8.79,8.8,29,29,0,0,1-12,5l-1.71.13c-1.64.13-2.6,0-2.86-.43-.09-.1-.09-.32,0-.65a12.49,12.49,0,0,1,2.22-3.42,46.84,46.84,0,0,0,5.57-8.87c.68-1.14,1.28-2.21,1.81-3.23A743.88,743.88,0,0,1,749.8,155q14.12-19.11,28.88-37.95,2.52-3.12,4.89-6.39Q794,97.48,808,81.46q6-6.94,10.64-12.51a8.2,8.2,0,0,0,.61-.86c2.52-2.89,4.86-5.84,7-8.82a34.55,34.55,0,0,1,15.51-10.61A27.07,27.07,0,0,1,847.3,47l1.61-.45,1.18-.25,1.09.08a1.71,1.71,0,0,1,1.39,1,3.44,3.44,0,0,1,.13,2.26,5.58,5.58,0,0,1-1.11,2,79,79,0,0,0-6.16,7,24.49,24.49,0,0,0-2,2.59q-36.4,42.42-69.95,85.92-15.84,20.72-29.67,42.24c-.62.91-1.17,1.82-1.67,2.73l-.74,1.35h.19A.41.41,0,0,0,741.92,193.58Z"/><path class="cls-1" d="M851,189.62c-.53.58-1.14,1.22-1.82,1.92l-5.06,4.94a73,73,0,0,1-12.15,9.86,18.55,18.55,0,0,1-8.64,3.1l-1.52.11q-8-.69-7.33-7.89A20.56,20.56,0,0,1,815,199a29.51,29.51,0,0,1,3.4-7.74A321.13,321.13,0,0,1,852,141.92l0-.16a30.74,30.74,0,0,1,4.36-4.4c2.81-2.16,5.42-3.34,7.82-3.52a7.88,7.88,0,0,1,4.39,1q2.52,1.59,2.42,3.39a14.77,14.77,0,0,1-.3,2.46,11.14,11.14,0,0,1-2.73,4.59,215.45,215.45,0,0,0-28.85,39.9l-4,6.48-.22.83a3.55,3.55,0,0,0,1.08-.25,3.76,3.76,0,0,0,1-.56h.19a81.34,81.34,0,0,0,11.7-8.21q4.88-4.26,9.8-8.7c1-.84,2-1.73,3.14-2.68a43.25,43.25,0,0,0,3.69-4q8.12-10,16.71-19.8l5.41-6.26a41.78,41.78,0,0,1,3.37-3.51A13.48,13.48,0,0,1,898.5,135a9,9,0,0,1,3.75.53c2.52,1.22,3.42,3.15,2.7,5.81a12.54,12.54,0,0,1-1.1,2.68,16.67,16.67,0,0,1-2.61,3.45l-9.33,11.11q-3.78,4.35-7.61,8.87a142.69,142.69,0,0,0-12.11,15.87,30.41,30.41,0,0,0-3.37,6.27l-.14.5c-.21.77-.06,1.14.45,1.1l.38,0a13.81,13.81,0,0,0,4.1-1.77q2.53-1.5,4.73-3c1.45-1,2.42-1.73,2.88-2.09q15.22-11.56,26.6-22,8.1-7.28,17.67-15.15c.94-.73,1.87-1.39,2.78-2a4.38,4.38,0,0,1,2.31-1,2.21,2.21,0,0,1,1.52.53,1.26,1.26,0,0,1,.55,1.42,4.5,4.5,0,0,1-1.07,1.87,16.64,16.64,0,0,1-2.48,2.3c-1.65,1.54-4.33,4.07-8,7.6Q910,168.55,893.81,182.7t-24.87,18.71q-8.67,4.56-11.7,4.79-6.07.47-7.22-6.92a18.73,18.73,0,0,1,.67-5.9l1-3.66-.38,0A.39.39,0,0,0,851,189.62Z"/><path class="cls-1" d="M947.22,167.71a10.51,10.51,0,0,0-3.15,2l-.56.7q-4.83,4.09-9.71,8.37-6.51,5.53-13.08,11.24a133,133,0,0,1-12.63,9.57,32.26,32.26,0,0,1-6.59,3.75,16.23,16.23,0,0,1-4.77,1.18,8.23,8.23,0,0,1-4.1-.67q-3.48-1.51-3.45-5.75a16.09,16.09,0,0,1,.56-4.1,18.62,18.62,0,0,1,1.65-4q14.36-27.57,41.86-48.85a63.24,63.24,0,0,1,11.3-6.71,6.52,6.52,0,0,1,1.7-.78,26.5,26.5,0,0,1,7-1.66q5.5-.42,8.49,2.93,1.89,2.61,1.4,4.77c-.32,1.43-.52,2.26-.58,2.48a19.42,19.42,0,0,1-3.79,7.11.24.24,0,0,0-.23.18,3.28,3.28,0,0,1-.52.53c-.5.47-.94.85-1.33,1.16a2.2,2.2,0,0,1-1.16.49,1.54,1.54,0,0,1-.71-.11c-.61-.06-.95-.28-1-.65a4.83,4.83,0,0,1-.09-1.38,1.2,1.2,0,0,0,0-.65,21.74,21.74,0,0,0,.28-3.1c.05-1.09,0-1.65-.28-1.69a3.11,3.11,0,0,0-.55,0,6.48,6.48,0,0,0-2.12,1,82.73,82.73,0,0,0-12.64,8.92,148.44,148.44,0,0,0-28.19,32.7l-.09.33a1.84,1.84,0,0,0-.37.68l-.09.33a1.11,1.11,0,0,0,0,.65,18.55,18.55,0,0,0,4.33-2.28,5.12,5.12,0,0,1,.89-.56,306.33,306.33,0,0,0,36.77-27.33,65,65,0,0,0,10.1-10.52,64.69,64.69,0,0,1,4.67-5.56l1.12-1.38a22.73,22.73,0,0,1,4.21-3.9,10.64,10.64,0,0,1,5.67-2.38,6.88,6.88,0,0,1,2.18.16q4,1.15,3.45,5.1l-.22,1.48a14.43,14.43,0,0,1-2.12,4.38q-2.74,3.94-5.63,7.75-3.4,4.32-5.41,6.91c-1.64,2-3.16,3.89-4.54,5.79a82.23,82.23,0,0,0-4.94,7.93,77.69,77.69,0,0,0-4.62,8.8l-1.1,2.68-.09.34c-.33,1.21-.18,1.8.46,1.75a5.08,5.08,0,0,0,2.12-1c3.13-2,6.19-4.1,9.16-6.39,2.22-1.79,4.42-3.53,6.62-5.22q23.43-17.22,39.06-33a22.52,22.52,0,0,1,4.37-3.1,2.49,2.49,0,0,1,1.27-.58,1.41,1.41,0,0,1,1.19.39,1.07,1.07,0,0,1,.4,1.27,3.36,3.36,0,0,1-.41.85,25.45,25.45,0,0,1-3.46,3.84q-3.75,3.53-8.29,7.94-12.39,12.15-26.66,25.35a236.7,236.7,0,0,1-24.79,20.49,19.39,19.39,0,0,1-8.69,3.26l-1.32.11a8.6,8.6,0,0,1-7.32-3.84,13.41,13.41,0,0,1-.91-10.33l.13-.49a56.46,56.46,0,0,1,7.28-15.18q.69-1.2,1.35-2.22a2.35,2.35,0,0,0,.41-.84C946.5,168.74,946.81,168.28,947.22,167.71Z"/><path class="cls-1" d="M1009,171.9a7.15,7.15,0,0,0,2.87-1.68,2,2,0,0,0,.71-.54q15.68-11.93,30.11-24.72l.47-.36a.77.77,0,0,0,.28-.35q7.59-6.75,15.76-12.9,3-2,5.88-3.86a31.42,31.42,0,0,1,6.83-3.28,23.71,23.71,0,0,1,4.5-.83,9.58,9.58,0,0,1,7,1.75q3.12,2.85,1.64,8.32l-.36,1.33a43.08,43.08,0,0,1-5.47,9.19q-3.5,4.65-5.81,8.08c-1.55,2.28-3,4.51-4.32,6.67q-2.65,4.26-7.2,10.78a3.53,3.53,0,0,1-.65,1c-.78,1-1.59,2.18-2.42,3.43a8.61,8.61,0,0,0-1.41,2.79c-.1.6,0,.89.42.86a4.41,4.41,0,0,0,1.42-.43q7.77-3.36,18.37-12.61T1098,145.62q9.83-9.52,15.74-14.2l.47-.36a8.46,8.46,0,0,1,1.58-1,3.06,3.06,0,0,1,1-.32,1.59,1.59,0,0,1,1.34.55,1.09,1.09,0,0,1,.26,1.11l-.09.34a5.51,5.51,0,0,1-1.17,1.55.69.69,0,0,0-.28.34q-5.46,6.44-20.74,21.65A350,350,0,0,1,1066.31,182q-14.55,11.5-21.57,12a7.85,7.85,0,0,1-2.37-.14q-6.31-2.78-4.94-9.87l.59-2.15a35.51,35.51,0,0,1,5.15-10.8q3.54-5.46,5.85-9.22c1.54-2.5,3.12-5,4.71-7.42s3.68-5.46,6.25-9l.56-.69a12.42,12.42,0,0,0,1.44-2.55l-.53-.12-1.27.58-.47.36a102.33,102.33,0,0,0-11.42,7.86q-15.48,12.56-29.62,26.3a32.87,32.87,0,0,1-2.76,2.65q-4.77,4.59-9.5,9c-1.82,1.66-3.67,3.26-5.58,4.81a22.2,22.2,0,0,1-6.64,3.92,14.91,14.91,0,0,1-5.43,1.55,9.19,9.19,0,0,1-5.91-1.5,6.36,6.36,0,0,1-2.19-7,13.23,13.23,0,0,1,.73-2,127.91,127.91,0,0,1,13.29-22.3q12-16.66,24.78-33.08a26.22,26.22,0,0,1,4.82-4.76,13.48,13.48,0,0,1,6.23-2.42,8.08,8.08,0,0,1,4.57,1,5,5,0,0,1,2,5.7,10.78,10.78,0,0,1-1.33,2.86c-1.62,2.29-3.26,4.48-4.94,6.55q-1.21,1.73-2.37,3.27-9,11.9-17.79,23.78a.71.71,0,0,0-.28.35A9.6,9.6,0,0,0,1009,171.9Z"/><path class="cls-1" d="M1122.5,162.06a12.54,12.54,0,0,0-1.8.91,6.44,6.44,0,0,0-1.27,1,3.27,3.27,0,0,0-.5.53l-4.71,4q-5.16,4.4-10.67,8.68a58.45,58.45,0,0,1-9.56,6.45,20.77,20.77,0,0,1-7.23,2.32,8.46,8.46,0,0,1-4.78-.84q-4.63-2.16-3.39-8.63l.21-.83a30.77,30.77,0,0,1,3.92-9,122.66,122.66,0,0,1,11.2-15.24,178.24,178.24,0,0,1,29.61-28.25,76.12,76.12,0,0,1,23.18-12.16,22.43,22.43,0,0,1,5.09-1.14,20.83,20.83,0,0,1,3.7,0c3.32.55,4.77,2.36,4.37,5.44l-.08.33q-1.85,7.35-9.44,12.63a1.71,1.71,0,0,1-.84.41l-.57.05a1.59,1.59,0,0,1-.72-.09c-.32-.19-.45-.42-.38-.7l.15-.58.12-.5a12.19,12.19,0,0,1,1-1.89c.18-.24.38-.53.59-.87l0-.17a8.75,8.75,0,0,0,.83-1.46c.16-.4.25-.65.28-.76a3,3,0,0,0,.1-1.15q-6.51,2.42-17.28,11.1a222.79,222.79,0,0,0-20.76,19.09q-10,10.41-13.83,17.61a4.68,4.68,0,0,0,1.49-.38,6.26,6.26,0,0,0,1.41-.87,4,4,0,0,0,.66-.39q10.23-6.19,20.06-13c1.64-1.14,3.22-2.26,4.73-3.39,1-.64,2-1.27,2.88-1.9a30.66,30.66,0,0,1,2.92-2.07,42.16,42.16,0,0,0,9-7.7,35.52,35.52,0,0,1,7.52-6.42,10.43,10.43,0,0,1,3.1-1.69,12.25,12.25,0,0,1,1.67-.4,4.65,4.65,0,0,1,2.48.41,3.7,3.7,0,0,1,2,4.53,5.22,5.22,0,0,1-.48,1.18,36.18,36.18,0,0,1-4.07,7.4q-4.85,6.81-10.22,13.51-5.6,6.9-11.93,15.23t-11.23,15.33a.74.74,0,0,0-.27.35,8.48,8.48,0,0,0-1,1.89l0,.17c.06.21.55.27,1.43.18l.95-.09q4.58-.6,11.78-1.29l18.63-1.25c8.41-.59,39.18-2.23,48.85-2.94,10-.75,54.25-3.05,60.86-3.63s22.5-1.53,25.91-1.86l6.34-.72a9.06,9.06,0,0,1,1.75-.33,22.86,22.86,0,0,1,2.88-.44l1.32-.13a11.48,11.48,0,0,1,4.22.9.32.32,0,0,1,.1.31,2.46,2.46,0,0,1,1.29.77,1.33,1.33,0,0,1,.25,1.2l-.12.5a7.47,7.47,0,0,1-4,4.3,42,42,0,0,1-13.55,3.9,17.55,17.55,0,0,1-7.29-.65c-3.19-.56-43.51.93-55.73,1.51s-59.42,2.92-69.85,3.76-28.86,2-33.54,2.43l-5.49.53a5.77,5.77,0,0,0-4.6,2.89l-11.24,15.41c-2.4,3.16-4.72,6.31-7,9.46a408.23,408.23,0,0,1-34,41.2,151.66,151.66,0,0,1-18.12,17q-17.74,14.08-38.43,16.24-13.82,1.32-22.13-5.36-10.47-9.09-14.18-20.12a37,37,0,0,1-1.21-21,45.13,45.13,0,0,1,2.2-6.56q5.57-13.4,24.84-24.69a136.17,136.17,0,0,1,28-11.32A379,379,0,0,1,1064.59,200l27.85-5c1-.21,2-.35,2.88-.44a6.69,6.69,0,0,0,2.07-.52,4.82,4.82,0,0,0,1.76-1.47q9.21-12.45,20.08-26.36C1120.47,164.75,1121.56,163.35,1122.5,162.06ZM990.13,284.2a18.82,18.82,0,0,0,12.93,3,30.37,30.37,0,0,0,3.07-.46,54,54,0,0,0,18.73-7.67,107.84,107.84,0,0,0,19.75-16.87,404,404,0,0,0,47.89-60,8.71,8.71,0,0,1,.58-.87l.13-.5c.14-.56,0-.81-.55-.76l-2.46.23-8.12,1.44-17,2.94a403.31,403.31,0,0,0-41.2,8.85,112.77,112.77,0,0,0-28.57,11.54q-16.6,10.22-18.95,16.63t-2.76,8.08a25,25,0,0,0,1.85,17.73A41.22,41.22,0,0,0,990.13,284.2Z"/></svg>